G04 #@! TF.GenerationSoftware,KiCad,Pcbnew,no-vcs-found-ef6910f~59~ubuntu16.04.1*
G04 #@! TF.CreationDate,2017-08-09T10:58:01-04:00*
G04 #@! TF.ProjectId,modular_device_base_3x2,6D6F64756C61725F6465766963655F62,1.2*
G04 #@! TF.SameCoordinates,Original*
G04 #@! TF.FileFunction,Soldermask,Top*
G04 #@! TF.FilePolarity,Negative*
%FSLAX46Y46*%
G04 Gerber Fmt 4.6, Leading zero omitted, Abs format (unit mm)*
G04 Created by KiCad (PCBNEW no-vcs-found-ef6910f~59~ubuntu16.04.1) date Wed Aug  9 10:58:01 2017*
%MOMM*%
%LPD*%
G01*
G04 APERTURE LIST*
%ADD10C,0.228600*%
%ADD11C,3.956000*%
%ADD12O,2.254200X2.940000*%
%ADD13R,2.254200X2.940000*%
%ADD14O,2.133600X1.625600*%
%ADD15O,1.625600X2.133600*%
%ADD16R,2.743200X2.057400*%
%ADD17O,2.743200X2.057400*%
%ADD18R,1.640000X1.800000*%
%ADD19R,5.160000X4.000000*%
%ADD20O,2.940000X1.924000*%
%ADD21R,3.067000X1.990040*%
%ADD22R,2.178000X4.591000*%
%ADD23C,1.600200*%
%ADD24R,2.997200X5.029200*%
%ADD25R,1.670000X2.940000*%
%ADD26R,3.110000X2.900000*%
%ADD27R,1.924000X2.940000*%
%ADD28O,1.924000X2.940000*%
%ADD29O,5.480000X3.448000*%
%ADD30O,2.432000X1.924000*%
%ADD31O,1.924000X2.432000*%
%ADD32C,2.330400*%
%ADD33O,4.972000X3.956000*%
%ADD34O,4.464000X5.480000*%
%ADD35O,5.480000X3.956000*%
G04 APERTURE END LIST*
D10*
X144145000Y-78740000D02*
X59055000Y-78740000D01*
X144145000Y-120650000D02*
X144145000Y-78740000D01*
X59055000Y-120650000D02*
X144145000Y-120650000D01*
X59055000Y-78740000D02*
X59055000Y-120650000D01*
D11*
X118110000Y-81915000D03*
X118110000Y-117475000D03*
X77470000Y-112395000D03*
X77470000Y-86995000D03*
D12*
X76200000Y-117475000D03*
X78740000Y-117475000D03*
X81280000Y-117475000D03*
X83820000Y-117475000D03*
X86360000Y-117475000D03*
X88900000Y-117475000D03*
X91440000Y-117475000D03*
X93980000Y-117475000D03*
X96520000Y-117475000D03*
X99060000Y-117475000D03*
X101600000Y-117475000D03*
X104140000Y-117475000D03*
X106680000Y-117475000D03*
X109220000Y-117475000D03*
X111760000Y-117475000D03*
X114300000Y-117475000D03*
X114300000Y-81915000D03*
X111760000Y-81915000D03*
X109220000Y-81915000D03*
X106680000Y-81915000D03*
X104140000Y-81915000D03*
X101600000Y-81915000D03*
X99060000Y-81915000D03*
X96520000Y-81915000D03*
X93980000Y-81915000D03*
X91440000Y-81915000D03*
X88900000Y-81915000D03*
X86360000Y-81915000D03*
X83820000Y-81915000D03*
D13*
X76200000Y-81915000D03*
D12*
X81280000Y-81915000D03*
X78740000Y-81915000D03*
D14*
X139954000Y-110490000D03*
X142494000Y-110490000D03*
D15*
X67945000Y-116459000D03*
X67945000Y-118999000D03*
X70485000Y-116459000D03*
X70485000Y-118999000D03*
D16*
X136525000Y-91440000D03*
D17*
X136525000Y-86360000D03*
X136525000Y-88900000D03*
D18*
X121525000Y-93140000D03*
X121525000Y-91010000D03*
D19*
X117725000Y-92075000D03*
D18*
X121525000Y-103300000D03*
X121525000Y-101170000D03*
D19*
X117725000Y-102235000D03*
D20*
X67310000Y-86360000D03*
X67310000Y-88900000D03*
X67310000Y-83820000D03*
D21*
X73342500Y-109126020D03*
X65087500Y-109126020D03*
X73342500Y-113123980D03*
X65087500Y-113123980D03*
D22*
X128905000Y-110744000D03*
X126365000Y-110744000D03*
D23*
X131318000Y-113919000D03*
X123952000Y-113919000D03*
D24*
X132359400Y-117475000D03*
X122910600Y-117475000D03*
D25*
X86741000Y-99695000D03*
X89789000Y-99695000D03*
D26*
X83220000Y-99695000D03*
X79340000Y-99695000D03*
D11*
X62230000Y-81915000D03*
X62230000Y-117475000D03*
X140970000Y-81915000D03*
D27*
X78740000Y-92075000D03*
D28*
X81280000Y-92075000D03*
X83820000Y-92075000D03*
X86360000Y-92075000D03*
X88900000Y-92075000D03*
X91440000Y-92075000D03*
X93980000Y-92075000D03*
X96520000Y-92075000D03*
X99060000Y-92075000D03*
X101600000Y-92075000D03*
X104140000Y-92075000D03*
X106680000Y-92075000D03*
X109220000Y-92075000D03*
X111760000Y-92075000D03*
X111760000Y-107315000D03*
X109220000Y-107315000D03*
X106680000Y-107315000D03*
X104140000Y-107315000D03*
X101600000Y-107315000D03*
X99060000Y-107315000D03*
X96520000Y-107315000D03*
X93980000Y-107315000D03*
X91440000Y-107315000D03*
X88900000Y-107315000D03*
X86360000Y-107315000D03*
X83820000Y-107315000D03*
X81280000Y-107315000D03*
X78740000Y-107315000D03*
D20*
X111760000Y-104775000D03*
X111760000Y-102235000D03*
X111760000Y-99695000D03*
X111760000Y-97155000D03*
X111760000Y-94615000D03*
D28*
X81280000Y-104267000D03*
X86360000Y-104267000D03*
X88900000Y-104267000D03*
X91440000Y-104267000D03*
X93980000Y-102743000D03*
X93980000Y-99187000D03*
X96520000Y-102743000D03*
X96520000Y-99187000D03*
X99060000Y-99187000D03*
X101600000Y-99187000D03*
X104140000Y-99187000D03*
X106680000Y-99187000D03*
X109220000Y-99187000D03*
X99060000Y-102743000D03*
X101600000Y-102743000D03*
X104140000Y-102743000D03*
X106680000Y-102743000D03*
X109220000Y-102743000D03*
D29*
X63500000Y-104775000D03*
X63500000Y-94615000D03*
D30*
X69596000Y-99695000D03*
D31*
X72390000Y-99695000D03*
X72390000Y-96901000D03*
X72390000Y-102489000D03*
D23*
X122682000Y-86741000D03*
X132588000Y-86741000D03*
D22*
X126365000Y-88646000D03*
X128905000Y-88646000D03*
D23*
X123952000Y-85471000D03*
X131318000Y-85471000D03*
D24*
X122910600Y-81915000D03*
X132359400Y-81915000D03*
D23*
X122682000Y-112649000D03*
X132588000Y-112649000D03*
D32*
X141147800Y-99695000D03*
D33*
X137642600Y-99695000D03*
D34*
X132156200Y-99695000D03*
D35*
X139141200Y-104190800D03*
X139141200Y-95199200D03*
D11*
X140970000Y-117475000D03*
D18*
X121525000Y-98220000D03*
X121525000Y-96090000D03*
D19*
X117725000Y-97155000D03*
D18*
X121525000Y-108380000D03*
X121525000Y-106250000D03*
D19*
X117725000Y-107315000D03*
M02*
