M48
;DRILL file {KiCad no-vcs-found-ef6910f~59~ubuntu16.04.1} date Wed Aug  9 10:58:22 2017
;FORMAT={-:-/ absolute / inch / decimal}
FMAT,2
INCH,TZ
T1C0.025
T2C0.035
T3C0.038
T4C0.039
T5C0.040
T6C0.043
T7C0.047
T8C0.063
T9C0.090
T10C0.106
T11C0.124
T12C0.130
%
G90
G05
M72
T1
X2.7486Y-4.3127
X2.7989Y-4.4574
X3.0038Y-4.1919
X3.091Y-3.8319
X3.4932Y-3.7893
X4.1474Y-3.9891
X4.5091Y-3.925
X4.5613Y-3.518
X4.8424Y-3.625
X4.8468Y-3.8669
X4.8468Y-4.1831
X5.1077Y-3.6655
X5.2275Y-4.3235
T2
X2.75Y-3.925
X2.85Y-3.825
X2.85Y-3.925
X2.85Y-4.025
T3
X2.675Y-4.585
X2.675Y-4.685
X2.775Y-4.585
X2.775Y-4.685
X5.51Y-4.35
X5.61Y-4.35
T4
X2.65Y-3.3
X2.65Y-3.4
X2.65Y-3.5
T5
X3.1Y-3.625
X3.1Y-4.225
X3.2Y-3.625
X3.2Y-4.125
X3.2Y-4.225
X3.3Y-3.625
X3.3Y-4.225
X3.4Y-3.625
X3.4Y-4.125
X3.4Y-4.225
X3.5Y-3.625
X3.5Y-4.125
X3.5Y-4.225
X3.6Y-3.625
X3.6Y-4.125
X3.6Y-4.225
X3.7Y-3.625
X3.7Y-3.925
X3.7Y-4.025
X3.7Y-4.225
X3.8Y-3.625
X3.8Y-3.925
X3.8Y-4.025
X3.8Y-4.225
X3.9Y-3.625
X3.9Y-3.925
X3.9Y-4.025
X3.9Y-4.225
X4.Y-3.625
X4.Y-3.925
X4.Y-4.025
X4.Y-4.225
X4.1Y-3.625
X4.1Y-3.925
X4.1Y-4.025
X4.1Y-4.225
X4.2Y-3.625
X4.2Y-3.925
X4.2Y-4.025
X4.2Y-4.225
X4.3Y-3.625
X4.3Y-3.925
X4.3Y-4.025
X4.3Y-4.225
X4.4Y-3.625
X4.4Y-3.725
X4.4Y-3.825
X4.4Y-3.925
X4.4Y-4.025
X4.4Y-4.125
X4.4Y-4.225
T6
X3.Y-3.225
X3.Y-4.625
X3.1Y-3.225
X3.1Y-4.625
X3.2Y-3.225
X3.2Y-4.625
X3.3Y-3.225
X3.3Y-4.625
X3.4Y-3.225
X3.4Y-4.625
X3.5Y-3.225
X3.5Y-4.625
X3.6Y-3.225
X3.6Y-4.625
X3.7Y-3.225
X3.7Y-4.625
X3.8Y-3.225
X3.8Y-4.625
X3.9Y-3.225
X3.9Y-4.625
X4.Y-3.225
X4.Y-4.625
X4.1Y-3.225
X4.1Y-4.625
X4.2Y-3.225
X4.2Y-4.625
X4.3Y-3.225
X4.3Y-4.625
X4.4Y-3.225
X4.4Y-4.625
X4.5Y-3.225
X4.5Y-4.625
X5.375Y-3.4
X5.375Y-3.5
X5.375Y-3.6
T7
X4.83Y-3.415
X5.22Y-3.415
X4.88Y-3.365
X5.17Y-3.365
X4.83Y-4.435
X5.22Y-4.435
X4.88Y-4.485
X5.17Y-4.485
T8
X5.557Y-3.925
T9
X2.5Y-3.725
X2.5Y-4.125
T10
X5.439Y-3.925
X5.478Y-3.748
X5.478Y-4.102
T11
X5.203Y-3.925
T12
X5.55Y-3.225
X3.05Y-3.425
X3.05Y-4.425
X4.65Y-3.225
X4.65Y-4.625
X2.45Y-3.225
X2.45Y-4.625
X5.55Y-4.625
T0
M30
