G04 #@! TF.GenerationSoftware,KiCad,Pcbnew,no-vcs-found-ef6910f~59~ubuntu16.04.1*
G04 #@! TF.CreationDate,2017-08-09T10:58:01-04:00*
G04 #@! TF.ProjectId,modular_device_base_3x2,6D6F64756C61725F6465766963655F62,1.2*
G04 #@! TF.SameCoordinates,Original*
G04 #@! TF.FileFunction,Soldermask,Bot*
G04 #@! TF.FilePolarity,Negative*
%FSLAX46Y46*%
G04 Gerber Fmt 4.6, Leading zero omitted, Abs format (unit mm)*
G04 Created by KiCad (PCBNEW no-vcs-found-ef6910f~59~ubuntu16.04.1) date Wed Aug  9 10:58:01 2017*
%MOMM*%
%LPD*%
G01*
G04 APERTURE LIST*
%ADD10C,0.228600*%
%ADD11R,3.575000X1.670000*%
%ADD12C,3.956000*%
%ADD13O,2.254200X2.940000*%
%ADD14R,2.254200X2.940000*%
%ADD15O,2.133600X1.625600*%
%ADD16O,1.625600X2.133600*%
%ADD17R,2.743200X2.057400*%
%ADD18O,2.743200X2.057400*%
%ADD19R,3.110000X2.900000*%
%ADD20R,2.940000X1.670000*%
%ADD21O,2.940000X1.924000*%
%ADD22C,1.600200*%
%ADD23R,1.924000X2.940000*%
%ADD24O,1.924000X2.940000*%
%ADD25O,5.480000X3.448000*%
%ADD26O,2.432000X1.924000*%
%ADD27O,1.924000X2.432000*%
%ADD28R,2.997200X5.029200*%
%ADD29R,2.178000X4.591000*%
%ADD30C,2.330400*%
%ADD31O,4.972000X3.956000*%
%ADD32O,4.464000X5.480000*%
%ADD33O,5.480000X3.956000*%
%ADD34R,1.670000X2.940000*%
%ADD35R,5.160000X4.000000*%
%ADD36R,1.640000X1.800000*%
%ADD37R,1.534160X0.762000*%
G04 APERTURE END LIST*
D10*
X144145000Y-78740000D02*
X59055000Y-78740000D01*
X144145000Y-120650000D02*
X144145000Y-78740000D01*
X59055000Y-120650000D02*
X144145000Y-120650000D01*
X59055000Y-78740000D02*
X59055000Y-120650000D01*
D11*
X67513200Y-112395000D03*
X67513200Y-109855000D03*
D12*
X118110000Y-81915000D03*
X118110000Y-117475000D03*
X77470000Y-112395000D03*
X77470000Y-86995000D03*
D13*
X76200000Y-117475000D03*
X78740000Y-117475000D03*
X81280000Y-117475000D03*
X83820000Y-117475000D03*
X86360000Y-117475000D03*
X88900000Y-117475000D03*
X91440000Y-117475000D03*
X93980000Y-117475000D03*
X96520000Y-117475000D03*
X99060000Y-117475000D03*
X101600000Y-117475000D03*
X104140000Y-117475000D03*
X106680000Y-117475000D03*
X109220000Y-117475000D03*
X111760000Y-117475000D03*
X114300000Y-117475000D03*
X114300000Y-81915000D03*
X111760000Y-81915000D03*
X109220000Y-81915000D03*
X106680000Y-81915000D03*
X104140000Y-81915000D03*
X101600000Y-81915000D03*
X99060000Y-81915000D03*
X96520000Y-81915000D03*
X93980000Y-81915000D03*
X91440000Y-81915000D03*
X88900000Y-81915000D03*
X86360000Y-81915000D03*
X83820000Y-81915000D03*
D14*
X76200000Y-81915000D03*
D13*
X81280000Y-81915000D03*
X78740000Y-81915000D03*
D15*
X139954000Y-110490000D03*
X142494000Y-110490000D03*
D16*
X67945000Y-116459000D03*
X67945000Y-118999000D03*
X70485000Y-116459000D03*
X70485000Y-118999000D03*
D17*
X136525000Y-91440000D03*
D18*
X136525000Y-86360000D03*
X136525000Y-88900000D03*
D19*
X73060000Y-92710000D03*
X69180000Y-92710000D03*
D20*
X71755000Y-81026000D03*
X71755000Y-84074000D03*
X63500000Y-89789000D03*
X63500000Y-86741000D03*
D21*
X67310000Y-86360000D03*
X67310000Y-88900000D03*
X67310000Y-83820000D03*
D22*
X131318000Y-113919000D03*
X123952000Y-113919000D03*
D20*
X63500000Y-98171000D03*
X63500000Y-101219000D03*
X71755000Y-89154000D03*
X71755000Y-86106000D03*
D12*
X62230000Y-81915000D03*
X62230000Y-117475000D03*
X140970000Y-81915000D03*
D23*
X78740000Y-92075000D03*
D24*
X81280000Y-92075000D03*
X83820000Y-92075000D03*
X86360000Y-92075000D03*
X88900000Y-92075000D03*
X91440000Y-92075000D03*
X93980000Y-92075000D03*
X96520000Y-92075000D03*
X99060000Y-92075000D03*
X101600000Y-92075000D03*
X104140000Y-92075000D03*
X106680000Y-92075000D03*
X109220000Y-92075000D03*
X111760000Y-92075000D03*
X111760000Y-107315000D03*
X109220000Y-107315000D03*
X106680000Y-107315000D03*
X104140000Y-107315000D03*
X101600000Y-107315000D03*
X99060000Y-107315000D03*
X96520000Y-107315000D03*
X93980000Y-107315000D03*
X91440000Y-107315000D03*
X88900000Y-107315000D03*
X86360000Y-107315000D03*
X83820000Y-107315000D03*
X81280000Y-107315000D03*
X78740000Y-107315000D03*
D21*
X111760000Y-104775000D03*
X111760000Y-102235000D03*
X111760000Y-99695000D03*
X111760000Y-97155000D03*
X111760000Y-94615000D03*
D24*
X81280000Y-104267000D03*
X86360000Y-104267000D03*
X88900000Y-104267000D03*
X91440000Y-104267000D03*
X93980000Y-102743000D03*
X93980000Y-99187000D03*
X96520000Y-102743000D03*
X96520000Y-99187000D03*
X99060000Y-99187000D03*
X101600000Y-99187000D03*
X104140000Y-99187000D03*
X106680000Y-99187000D03*
X109220000Y-99187000D03*
X99060000Y-102743000D03*
X101600000Y-102743000D03*
X104140000Y-102743000D03*
X106680000Y-102743000D03*
X109220000Y-102743000D03*
D25*
X63500000Y-104775000D03*
X63500000Y-94615000D03*
D26*
X69596000Y-99695000D03*
D27*
X72390000Y-99695000D03*
X72390000Y-96901000D03*
X72390000Y-102489000D03*
D28*
X121640600Y-83185000D03*
X133629400Y-83185000D03*
D22*
X122682000Y-86741000D03*
X132588000Y-86741000D03*
D29*
X125095000Y-89916000D03*
X127635000Y-89916000D03*
X130175000Y-89916000D03*
D22*
X123952000Y-85471000D03*
X131318000Y-85471000D03*
D29*
X125095000Y-109474000D03*
X127635000Y-109474000D03*
X130175000Y-109474000D03*
D22*
X122682000Y-112649000D03*
X132588000Y-112649000D03*
D28*
X121640600Y-116205000D03*
X133629400Y-116205000D03*
D30*
X141147800Y-99695000D03*
D31*
X137642600Y-99695000D03*
D32*
X132156200Y-99695000D03*
D33*
X139141200Y-104190800D03*
X139141200Y-95199200D03*
D12*
X140970000Y-117475000D03*
D34*
X73914000Y-107315000D03*
X70866000Y-107315000D03*
D35*
X119765000Y-94615000D03*
D36*
X115965000Y-93550000D03*
X115965000Y-95680000D03*
D35*
X119765000Y-99695000D03*
D36*
X115965000Y-98630000D03*
X115965000Y-100760000D03*
D35*
X119765000Y-104775000D03*
D36*
X115965000Y-103710000D03*
X115965000Y-105840000D03*
D37*
X73588880Y-110175040D03*
X73588880Y-111125000D03*
X73588880Y-112074960D03*
X71191120Y-112074960D03*
X71191120Y-111125000D03*
X71191120Y-110175040D03*
D34*
X114046000Y-111760000D03*
X117094000Y-111760000D03*
M02*
